<svg xmlns="http://www.w3.org/2000/svg" viewBox="0 0 100 100" role="img" aria-label="Admin logo">
  <rect width="100" height="100" fill="#0f1020" />

  <g fill="#d8791f" stroke="#d8791f" stroke-linecap="round" stroke-linejoin="round">
    <circle cx="50" cy="50" r="31" fill="none" stroke-width="3.4" />
    <circle cx="50" cy="50" r="3.6" stroke="none" />
    <circle cx="50" cy="50" r="15" fill="none" stroke-width="2.2" />

    <g transform="translate(50 50)">
      <line x1="0" y1="-28" x2="0" y2="-16" stroke-width="2.25" />
      <line x1="0" y1="-28" x2="0" y2="-16" stroke-width="2.25" transform="rotate(15)" />
      <line x1="0" y1="-28" x2="0" y2="-16" stroke-width="2.25" transform="rotate(30)" />
      <line x1="0" y1="-28" x2="0" y2="-16" stroke-width="2.25" transform="rotate(45)" />
      <line x1="0" y1="-28" x2="0" y2="-16" stroke-width="2.25" transform="rotate(60)" />
      <line x1="0" y1="-28" x2="0" y2="-16" stroke-width="2.25" transform="rotate(75)" />
      <line x1="0" y1="-28" x2="0" y2="-16" stroke-width="2.25" transform="rotate(90)" />
      <line x1="0" y1="-28" x2="0" y2="-16" stroke-width="2.25" transform="rotate(105)" />
      <line x1="0" y1="-28" x2="0" y2="-16" stroke-width="2.25" transform="rotate(120)" />
      <line x1="0" y1="-28" x2="0" y2="-16" stroke-width="2.25" transform="rotate(135)" />
      <line x1="0" y1="-28" x2="0" y2="-16" stroke-width="2.25" transform="rotate(150)" />
      <line x1="0" y1="-28" x2="0" y2="-16" stroke-width="2.25" transform="rotate(165)" />
      <line x1="0" y1="-28" x2="0" y2="-16" stroke-width="2.25" transform="rotate(180)" />
      <line x1="0" y1="-28" x2="0" y2="-16" stroke-width="2.25" transform="rotate(195)" />
      <line x1="0" y1="-28" x2="0" y2="-16" stroke-width="2.25" transform="rotate(210)" />
      <line x1="0" y1="-28" x2="0" y2="-16" stroke-width="2.25" transform="rotate(225)" />
      <line x1="0" y1="-28" x2="0" y2="-16" stroke-width="2.25" transform="rotate(240)" />
      <line x1="0" y1="-28" x2="0" y2="-16" stroke-width="2.25" transform="rotate(255)" />
      <line x1="0" y1="-28" x2="0" y2="-16" stroke-width="2.25" transform="rotate(270)" />
      <line x1="0" y1="-28" x2="0" y2="-16" stroke-width="2.25" transform="rotate(285)" />
      <line x1="0" y1="-28" x2="0" y2="-16" stroke-width="2.25" transform="rotate(300)" />
      <line x1="0" y1="-28" x2="0" y2="-16" stroke-width="2.25" transform="rotate(315)" />
      <line x1="0" y1="-28" x2="0" y2="-16" stroke-width="2.25" transform="rotate(330)" />
      <line x1="0" y1="-28" x2="0" y2="-16" stroke-width="2.25" transform="rotate(345)" />
    </g>
  </g>
</svg>
